<mxfile host="app.diagrams.net" agent="Mozilla/5.0 (X11; Linux x86_64) AppleWebKit/537.36 (KHTML, like Gecko) Chrome/139.0.0.0 Safari/537.36" version="28.1.1">
  <diagram name="Page-1" id="4o9qRHhL8_16s1AMlF7-">
    <mxGraphModel dx="1783" dy="999" grid="1" gridSize="10" guides="1" tooltips="1" connect="1" arrows="1" fold="1" page="1" pageScale="1" pageWidth="827" pageHeight="1169" math="0" shadow="0">
      <root>
        <mxCell id="0" />
        <mxCell id="1" parent="0" />
        <mxCell id="ekGNk5RDT5R6NQnFrMYY-7" style="edgeStyle=orthogonalEdgeStyle;rounded=0;orthogonalLoop=1;jettySize=auto;html=1;exitX=0.5;exitY=1;exitDx=0;exitDy=0;exitPerimeter=0;entryX=0.5;entryY=0;entryDx=0;entryDy=0;" edge="1" parent="1" source="ekGNk5RDT5R6NQnFrMYY-1" target="ekGNk5RDT5R6NQnFrMYY-3">
          <mxGeometry relative="1" as="geometry" />
        </mxCell>
        <mxCell id="ekGNk5RDT5R6NQnFrMYY-1" value="Start" style="strokeWidth=2;html=1;shape=mxgraph.flowchart.start_1;whiteSpace=wrap;" vertex="1" parent="1">
          <mxGeometry x="364" y="60" width="100" height="40" as="geometry" />
        </mxCell>
        <mxCell id="ekGNk5RDT5R6NQnFrMYY-2" value="Dictionary" style="strokeWidth=2;html=1;shape=mxgraph.flowchart.database;whiteSpace=wrap;" vertex="1" parent="1">
          <mxGeometry x="510" y="80" width="60" height="60" as="geometry" />
        </mxCell>
        <mxCell id="ekGNk5RDT5R6NQnFrMYY-10" value="" style="edgeStyle=orthogonalEdgeStyle;rounded=0;orthogonalLoop=1;jettySize=auto;html=1;" edge="1" parent="1" source="ekGNk5RDT5R6NQnFrMYY-3" target="ekGNk5RDT5R6NQnFrMYY-9">
          <mxGeometry relative="1" as="geometry" />
        </mxCell>
        <mxCell id="ekGNk5RDT5R6NQnFrMYY-3" value="Get random word" style="rounded=1;whiteSpace=wrap;html=1;absoluteArcSize=1;arcSize=14;strokeWidth=2;" vertex="1" parent="1">
          <mxGeometry x="364" y="140" width="100" height="40" as="geometry" />
        </mxCell>
        <mxCell id="ekGNk5RDT5R6NQnFrMYY-8" style="edgeStyle=orthogonalEdgeStyle;rounded=0;orthogonalLoop=1;jettySize=auto;html=1;entryX=0.97;entryY=0.513;entryDx=0;entryDy=0;entryPerimeter=0;" edge="1" parent="1" source="ekGNk5RDT5R6NQnFrMYY-2" target="ekGNk5RDT5R6NQnFrMYY-3">
          <mxGeometry relative="1" as="geometry">
            <Array as="points">
              <mxPoint x="540" y="161" />
            </Array>
          </mxGeometry>
        </mxCell>
        <mxCell id="ekGNk5RDT5R6NQnFrMYY-12" value="" style="edgeStyle=orthogonalEdgeStyle;rounded=0;orthogonalLoop=1;jettySize=auto;html=1;" edge="1" parent="1" source="ekGNk5RDT5R6NQnFrMYY-9" target="ekGNk5RDT5R6NQnFrMYY-11">
          <mxGeometry relative="1" as="geometry" />
        </mxCell>
        <mxCell id="ekGNk5RDT5R6NQnFrMYY-9" value="Build graphics with blanks for letters in word" style="whiteSpace=wrap;html=1;rounded=1;absoluteArcSize=1;arcSize=14;strokeWidth=2;" vertex="1" parent="1">
          <mxGeometry x="354" y="200" width="120" height="60" as="geometry" />
        </mxCell>
        <mxCell id="ekGNk5RDT5R6NQnFrMYY-14" value="" style="edgeStyle=orthogonalEdgeStyle;rounded=0;orthogonalLoop=1;jettySize=auto;html=1;" edge="1" parent="1" source="ekGNk5RDT5R6NQnFrMYY-11" target="ekGNk5RDT5R6NQnFrMYY-13">
          <mxGeometry relative="1" as="geometry" />
        </mxCell>
        <mxCell id="ekGNk5RDT5R6NQnFrMYY-11" value="Ask user for a letter" style="rounded=1;whiteSpace=wrap;html=1;absoluteArcSize=1;arcSize=14;strokeWidth=2;" vertex="1" parent="1">
          <mxGeometry x="354" y="280" width="120" height="60" as="geometry" />
        </mxCell>
        <mxCell id="ekGNk5RDT5R6NQnFrMYY-16" value="" style="edgeStyle=orthogonalEdgeStyle;rounded=0;orthogonalLoop=1;jettySize=auto;html=1;" edge="1" parent="1" source="ekGNk5RDT5R6NQnFrMYY-13" target="ekGNk5RDT5R6NQnFrMYY-15">
          <mxGeometry relative="1" as="geometry" />
        </mxCell>
        <mxCell id="ekGNk5RDT5R6NQnFrMYY-17" value="Yes" style="edgeLabel;html=1;align=center;verticalAlign=middle;resizable=0;points=[];" vertex="1" connectable="0" parent="ekGNk5RDT5R6NQnFrMYY-16">
          <mxGeometry x="0.3725" y="2" relative="1" as="geometry">
            <mxPoint x="15" y="-12" as="offset" />
          </mxGeometry>
        </mxCell>
        <mxCell id="ekGNk5RDT5R6NQnFrMYY-19" value="" style="edgeStyle=orthogonalEdgeStyle;rounded=0;orthogonalLoop=1;jettySize=auto;html=1;" edge="1" parent="1" source="ekGNk5RDT5R6NQnFrMYY-13" target="ekGNk5RDT5R6NQnFrMYY-18">
          <mxGeometry relative="1" as="geometry" />
        </mxCell>
        <mxCell id="ekGNk5RDT5R6NQnFrMYY-20" value="No" style="edgeLabel;html=1;align=center;verticalAlign=middle;resizable=0;points=[];" vertex="1" connectable="0" parent="ekGNk5RDT5R6NQnFrMYY-19">
          <mxGeometry x="-0.1176" y="1" relative="1" as="geometry">
            <mxPoint y="-9" as="offset" />
          </mxGeometry>
        </mxCell>
        <mxCell id="ekGNk5RDT5R6NQnFrMYY-13" value="Is the letter in the word?" style="rhombus;whiteSpace=wrap;html=1;rounded=1;absoluteArcSize=1;arcSize=14;strokeWidth=2;" vertex="1" parent="1">
          <mxGeometry x="349" y="370" width="130" height="100" as="geometry" />
        </mxCell>
        <mxCell id="ekGNk5RDT5R6NQnFrMYY-22" value="" style="edgeStyle=orthogonalEdgeStyle;rounded=0;orthogonalLoop=1;jettySize=auto;html=1;" edge="1" parent="1" source="ekGNk5RDT5R6NQnFrMYY-15" target="ekGNk5RDT5R6NQnFrMYY-21">
          <mxGeometry relative="1" as="geometry" />
        </mxCell>
        <mxCell id="ekGNk5RDT5R6NQnFrMYY-15" value="Replace blank or blanks with letter" style="whiteSpace=wrap;html=1;rounded=1;absoluteArcSize=1;arcSize=14;strokeWidth=2;" vertex="1" parent="1">
          <mxGeometry x="180" y="390" width="120" height="60" as="geometry" />
        </mxCell>
        <mxCell id="ekGNk5RDT5R6NQnFrMYY-24" value="" style="edgeStyle=orthogonalEdgeStyle;rounded=0;orthogonalLoop=1;jettySize=auto;html=1;" edge="1" parent="1" source="ekGNk5RDT5R6NQnFrMYY-18" target="ekGNk5RDT5R6NQnFrMYY-23">
          <mxGeometry relative="1" as="geometry" />
        </mxCell>
        <mxCell id="ekGNk5RDT5R6NQnFrMYY-18" value="Loose a life" style="rounded=1;whiteSpace=wrap;html=1;absoluteArcSize=1;arcSize=14;strokeWidth=2;" vertex="1" parent="1">
          <mxGeometry x="540" y="390" width="120" height="60" as="geometry" />
        </mxCell>
        <mxCell id="ekGNk5RDT5R6NQnFrMYY-25" style="edgeStyle=orthogonalEdgeStyle;rounded=0;orthogonalLoop=1;jettySize=auto;html=1;exitX=0;exitY=0.5;exitDx=0;exitDy=0;entryX=0;entryY=0.5;entryDx=0;entryDy=0;" edge="1" parent="1" source="ekGNk5RDT5R6NQnFrMYY-21" target="ekGNk5RDT5R6NQnFrMYY-11">
          <mxGeometry relative="1" as="geometry">
            <mxPoint x="150" y="330" as="targetPoint" />
            <Array as="points">
              <mxPoint x="130" y="530" />
              <mxPoint x="130" y="310" />
            </Array>
          </mxGeometry>
        </mxCell>
        <mxCell id="ekGNk5RDT5R6NQnFrMYY-28" value="Yes" style="edgeLabel;html=1;align=center;verticalAlign=middle;resizable=0;points=[];" vertex="1" connectable="0" parent="ekGNk5RDT5R6NQnFrMYY-25">
          <mxGeometry x="-0.8644" y="1" relative="1" as="geometry">
            <mxPoint x="14" y="-11" as="offset" />
          </mxGeometry>
        </mxCell>
        <mxCell id="ekGNk5RDT5R6NQnFrMYY-30" value="" style="edgeStyle=orthogonalEdgeStyle;rounded=0;orthogonalLoop=1;jettySize=auto;html=1;" edge="1" parent="1" source="ekGNk5RDT5R6NQnFrMYY-21" target="ekGNk5RDT5R6NQnFrMYY-29">
          <mxGeometry relative="1" as="geometry" />
        </mxCell>
        <mxCell id="ekGNk5RDT5R6NQnFrMYY-21" value="Are there any more blanks?" style="rhombus;whiteSpace=wrap;html=1;rounded=1;absoluteArcSize=1;arcSize=14;strokeWidth=2;" vertex="1" parent="1">
          <mxGeometry x="180" y="480" width="120" height="100" as="geometry" />
        </mxCell>
        <mxCell id="ekGNk5RDT5R6NQnFrMYY-26" style="edgeStyle=orthogonalEdgeStyle;rounded=0;orthogonalLoop=1;jettySize=auto;html=1;exitX=1;exitY=0.5;exitDx=0;exitDy=0;entryX=1;entryY=0.5;entryDx=0;entryDy=0;" edge="1" parent="1" source="ekGNk5RDT5R6NQnFrMYY-23" target="ekGNk5RDT5R6NQnFrMYY-11">
          <mxGeometry relative="1" as="geometry">
            <mxPoint x="490" y="350" as="targetPoint" />
            <Array as="points">
              <mxPoint x="710" y="535" />
              <mxPoint x="710" y="310" />
            </Array>
          </mxGeometry>
        </mxCell>
        <mxCell id="ekGNk5RDT5R6NQnFrMYY-27" value="Yes" style="edgeLabel;html=1;align=center;verticalAlign=middle;resizable=0;points=[];" vertex="1" connectable="0" parent="ekGNk5RDT5R6NQnFrMYY-26">
          <mxGeometry x="-0.865" y="3" relative="1" as="geometry">
            <mxPoint x="-14" y="-12" as="offset" />
          </mxGeometry>
        </mxCell>
        <mxCell id="ekGNk5RDT5R6NQnFrMYY-32" value="" style="edgeStyle=orthogonalEdgeStyle;rounded=0;orthogonalLoop=1;jettySize=auto;html=1;" edge="1" parent="1" source="ekGNk5RDT5R6NQnFrMYY-23" target="ekGNk5RDT5R6NQnFrMYY-31">
          <mxGeometry relative="1" as="geometry" />
        </mxCell>
        <mxCell id="ekGNk5RDT5R6NQnFrMYY-23" value="Are thre any more lifes left?" style="rhombus;whiteSpace=wrap;html=1;rounded=1;absoluteArcSize=1;arcSize=14;strokeWidth=2;" vertex="1" parent="1">
          <mxGeometry x="540" y="480" width="120" height="110" as="geometry" />
        </mxCell>
        <mxCell id="ekGNk5RDT5R6NQnFrMYY-34" value="" style="edgeStyle=orthogonalEdgeStyle;rounded=0;orthogonalLoop=1;jettySize=auto;html=1;" edge="1" parent="1" source="ekGNk5RDT5R6NQnFrMYY-29" target="ekGNk5RDT5R6NQnFrMYY-33">
          <mxGeometry relative="1" as="geometry" />
        </mxCell>
        <mxCell id="ekGNk5RDT5R6NQnFrMYY-29" value="message: You Win!" style="whiteSpace=wrap;html=1;rounded=1;absoluteArcSize=1;arcSize=14;strokeWidth=2;" vertex="1" parent="1">
          <mxGeometry x="180" y="600" width="120" height="60" as="geometry" />
        </mxCell>
        <mxCell id="ekGNk5RDT5R6NQnFrMYY-35" style="edgeStyle=orthogonalEdgeStyle;rounded=0;orthogonalLoop=1;jettySize=auto;html=1;exitX=0.5;exitY=1;exitDx=0;exitDy=0;entryX=1;entryY=0.5;entryDx=0;entryDy=0;" edge="1" parent="1" source="ekGNk5RDT5R6NQnFrMYY-31" target="ekGNk5RDT5R6NQnFrMYY-33">
          <mxGeometry relative="1" as="geometry" />
        </mxCell>
        <mxCell id="ekGNk5RDT5R6NQnFrMYY-31" value="message: You lost!" style="whiteSpace=wrap;html=1;rounded=1;absoluteArcSize=1;arcSize=14;strokeWidth=2;" vertex="1" parent="1">
          <mxGeometry x="540" y="600" width="120" height="60" as="geometry" />
        </mxCell>
        <mxCell id="ekGNk5RDT5R6NQnFrMYY-33" value="Game Over" style="whiteSpace=wrap;html=1;rounded=1;absoluteArcSize=1;arcSize=14;strokeWidth=2;" vertex="1" parent="1">
          <mxGeometry x="180" y="740" width="120" height="60" as="geometry" />
        </mxCell>
        <mxCell id="ekGNk5RDT5R6NQnFrMYY-36" value="User Input" style="html=1;strokeWidth=2;shape=manualInput;whiteSpace=wrap;rounded=1;size=26;arcSize=11;" vertex="1" parent="1">
          <mxGeometry x="510" y="210" width="100" height="60" as="geometry" />
        </mxCell>
        <mxCell id="ekGNk5RDT5R6NQnFrMYY-37" style="edgeStyle=orthogonalEdgeStyle;rounded=0;orthogonalLoop=1;jettySize=auto;html=1;exitX=0.5;exitY=1;exitDx=0;exitDy=0;entryX=1;entryY=0.308;entryDx=0;entryDy=0;entryPerimeter=0;" edge="1" parent="1" source="ekGNk5RDT5R6NQnFrMYY-36" target="ekGNk5RDT5R6NQnFrMYY-11">
          <mxGeometry relative="1" as="geometry" />
        </mxCell>
      </root>
    </mxGraphModel>
  </diagram>
</mxfile>
